<svg width="350" height="350" viewBox="0 0 350 350" fill="none" xmlns="http://www.w3.org/2000/svg">
<rect width="350" height="350" fill="white"/>
<path d="M101.476 131.277C99.5366 146.808 104.348 155.039 120.797 186.064C137.023 216.679 137.023 222.899 135.531 230.273C133.256 241.521 122.066 243.682 116.806 242.341C112.219 241.186 105.505 238.02 104.087 228.933C102.894 221.558 108.451 204.612 111.659 197.721C111.174 198.019 109.346 199.956 105.878 205.506C102.409 211.018 100.581 215.301 100.096 216.716C94.5012 233.961 100.133 257.09 125.684 254.669C134.859 253.812 145.49 246.475 148.362 235.674C151.271 224.873 144.483 212.359 137.732 202.005C130.98 191.651 116.023 166.622 112.144 145.914C109.048 129.34 118.261 117.719 123.259 113.995C124.08 114.293 127.325 117.794 133.89 129.526C140.454 141.258 137.918 162.599 135.829 171.799C136.948 168.484 139.485 160.737 140.641 156.268C142.096 150.644 146.161 143.418 143.811 127.142C141.909 113.995 127.773 100.475 120.835 95C114.979 101.928 103.005 118.837 101.476 131.277Z" fill="url(#paint0_linear_1905_37962)"/>
<path d="M176.673 112.989C168.43 118.24 162.425 118.24 154.965 123.455C147.468 128.706 149.706 140.662 150.489 146.658C151.086 151.463 147.729 156.64 145.976 158.614C149.706 155.374 157.203 147.403 157.203 143.641C157.203 137.608 158.359 131.909 160.187 129.414C162.425 126.434 165.521 125.317 172.16 123.417C177.419 121.928 181.149 118.166 183.014 116.676C183.126 117.16 183.313 119.209 183.014 123.417C182.641 128.669 180.403 138.39 174.398 148.111C169.587 155.895 150.191 166.547 140.679 170.532C146.684 168.782 161.492 163.642 172.906 157.087C187.155 148.856 190.139 136.192 190.139 127.924C190.139 121.183 187.901 110.717 186.409 106.248C185.924 106.732 183.276 108.78 176.673 112.989Z" fill="#2E4B99"/>
<path d="M55.785 127.924C56.5309 136.155 58.7689 148.856 73.0174 157.087C84.3939 163.679 99.2392 168.819 105.207 170.532C95.733 166.547 76.2998 155.858 71.4881 148.111C65.4829 138.39 63.2449 128.669 62.8719 123.417C62.5735 119.246 62.76 117.198 62.8719 116.676C64.7369 118.166 68.4669 121.928 73.7261 123.417C80.3655 125.317 83.4614 126.397 85.6994 129.414C87.5643 131.872 88.6833 137.608 88.6833 143.641C88.6833 147.366 96.1806 155.374 99.9106 158.614C98.1575 156.603 94.8005 151.426 95.3973 146.658C96.1433 140.662 98.3813 128.706 90.9213 123.455C83.4241 118.203 77.4561 118.203 69.2129 112.989C62.6108 108.817 59.9625 106.769 59.4776 106.248C58.0229 110.754 55.1882 121.369 55.785 127.924Z" fill="#2E4B99"/>
<path d="M185.812 149.043C185.7 149.08 185.7 149.08 185.962 149.043C186.596 149.005 188.796 148.968 194.205 149.825C199.389 150.681 205.357 153.177 209.871 154.741C205.32 159.024 194.503 167.144 190.251 170.123C185.253 173.662 180.441 177.833 167.013 175.822C156.271 174.22 149.594 175.487 147.58 176.306C151.385 176.939 160.56 178.578 166.901 179.881C174.809 181.52 182.94 183.792 191.706 177.088C200.471 170.384 210.99 158.428 216.174 155.523C220.016 153.363 222.142 153.177 222.851 153.4C216.174 150.719 206.7 147.143 202.112 146.212C200.098 145.802 198.569 145.504 196.965 145.504C194.205 145.542 191.333 146.361 185.812 149.043Z" fill="#FF9F00"/>
<path d="M43.9252 146.212C39.3 147.106 29.8259 150.681 23.1492 153.4C23.8579 153.177 25.9467 153.363 29.8259 155.523C35.0105 158.428 45.5663 170.384 54.2945 177.088C63.0599 183.792 71.154 181.52 79.0988 179.881C85.4398 178.578 94.6155 176.939 98.4201 176.306C96.4059 175.486 89.7292 174.22 78.9869 175.822C65.559 177.833 60.7473 173.661 55.7492 170.123C51.497 167.143 40.6801 159.024 36.1295 154.741C40.6428 153.177 46.6107 150.681 51.7954 149.825C57.2039 148.968 59.4046 149.005 60.0386 149.042C60.2997 149.042 60.2997 149.08 60.1878 149.042C54.6302 146.398 51.7954 145.541 49.1098 145.541C47.4686 145.541 45.9393 145.839 43.9252 146.212Z" fill="#FF9F00"/>
<path d="M154.779 246.289C156.346 246.773 155.525 249.231 153.959 248.673C152.429 248.188 153.25 245.768 154.779 246.289Z" fill="#2E4B99"/>
<path d="M149.78 251.28C152.13 252.025 150.899 255.675 148.55 254.856C146.237 254.111 147.468 250.461 149.78 251.28Z" fill="#2E4B99"/>
<path opacity="0.9" d="M177.233 227.537C169.226 227.537 164.367 222.337 164.367 213.963V213.938C164.367 205.613 169.274 200.291 176.94 200.291C184.606 200.291 189.416 205.491 189.416 213.401V215.599H171.398C171.472 219.773 173.742 222.215 177.38 222.215C180.31 222.215 182.092 220.604 182.604 219.139L182.653 218.992H189.196L189.123 219.261C188.317 223.118 184.704 227.537 177.233 227.537ZM177.062 205.613C174.133 205.613 171.936 207.566 171.472 211.106H182.58C182.141 207.493 180.017 205.613 177.062 205.613ZM193.353 227V200.828H200.481V205.125H200.628C201.971 202.122 204.656 200.291 208.611 200.291C214.373 200.291 217.645 203.978 217.645 210.105V227H210.516V211.57C210.516 208.152 208.904 206.199 205.706 206.199C202.508 206.199 200.481 208.543 200.481 211.961V227H193.353ZM226.317 227V197.85H216.137V191.771H243.896V197.85H233.69V227H226.317ZM244.292 227V200.828H251.421V205.394H251.567C252.349 202.171 254.473 200.291 257.524 200.291C258.306 200.291 259.038 200.413 259.575 200.56V206.834C258.989 206.59 258.013 206.443 256.987 206.443C253.472 206.443 251.421 208.543 251.421 212.352V227H244.292Z" fill="#2E4B99"/>
<path d="M300.319 235.545V200.828H307.448V205.394H307.619C309.035 202.22 311.892 200.291 315.603 200.291C322.243 200.291 326.296 205.369 326.296 213.89V213.914C326.296 222.41 322.243 227.537 315.7 227.537C311.965 227.537 309.011 225.633 307.595 222.532H307.448V235.545H300.319ZM313.259 221.629C316.799 221.629 319.045 218.675 319.045 213.914V213.89C319.045 209.104 316.799 206.199 313.259 206.199C309.792 206.199 307.424 209.178 307.424 213.914V213.938C307.424 218.65 309.792 221.629 313.259 221.629Z" fill="#2E4B99"/>
<path d="M289 225C289 226.657 284.971 228 280 228C275.029 228 271 226.657 271 225" stroke="#FF9F00" stroke-width="2" stroke-linecap="round"/>
<g clip-path="url(#clip0_1905_37962)">
<path d="M292.85 191.899C290.665 186.966 286.859 184.033 281.5 183.158C281.091 183.092 280.678 183.052 280.266 183H278.701C278.431 183.029 278.161 183.056 277.891 183.089C274.76 183.476 271.979 184.666 269.688 186.842C265.809 190.527 264.311 195.031 265.292 200.301C265.791 202.983 266.9 205.456 268.163 207.854C270.922 213.099 274.44 217.82 278.294 222.303C279.094 223.233 279.874 223.232 280.676 222.303C284.076 218.363 287.195 214.216 289.796 209.702C291.239 207.198 292.494 204.604 293.317 201.817C294.311 198.453 294.274 195.113 292.851 191.899H292.85ZM282.772 212.481C282.772 213.587 281.874 214.483 280.766 214.483H278.233C277.125 214.483 276.227 213.587 276.227 212.481V199.385C276.227 198.279 277.125 197.383 278.233 197.383H280.766C281.874 197.383 282.772 198.279 282.772 199.385V212.481ZM279.499 194.932C277.676 194.932 276.199 193.457 276.199 191.638C276.199 189.82 277.677 188.345 279.499 188.345C281.322 188.345 282.8 189.82 282.8 191.638C282.8 193.457 281.322 194.932 279.499 194.932Z" fill="#FF9F00"/>
</g>
<defs>
<linearGradient id="paint0_linear_1905_37962" x1="123.588" y1="254.844" x2="123.588" y2="95" gradientUnits="userSpaceOnUse">
<stop stop-color="#FF9F00"/>
<stop offset="1" stop-color="#2E4B99"/>
</linearGradient>
<clipPath id="clip0_1905_37962">
<rect width="29" height="40" fill="white" transform="translate(265 183)"/>
</clipPath>
</defs>
</svg>
